<svg xmlns="http://www.w3.org/2000/svg" xmlns:xlink="http://www.w3.org/1999/xlink" viewBox="0 0 479.88 367.41"><defs><style>.cls-1,.cls-3{fill:#fff;}.cls-2{fill:url(#linear-gradient);}.cls-3{font-size:84.98px;font-family:Asap-Medium, Asap;font-weight:500;letter-spacing:0.06em;}.cls-4,.cls-5{fill:#bdffae;}.cls-5{letter-spacing:0.04em;}</style><linearGradient id="linear-gradient" x1="197.5" y1="31.02" x2="300.19" y2="267.37" gradientUnits="userSpaceOnUse"><stop offset="0" stop-color="#7eda92"/><stop offset="1" stop-color="#51c960"/></linearGradient></defs><g id="Layer_2" data-name="Layer 2"><g id="Layer_1-2" data-name="Layer 1"><path class="cls-1" d="M302.55,0a66.11,66.11,0,0,0-41.31,14.28c-11.74,9.08-19.56,20.65-24.16,29.06-4.61-8.41-12.43-20-24.17-29.06A66.11,66.11,0,0,0,171.6,0C129.3,0,97.4,34.6,97.4,80.48c0,49.58,39.8,83.49,100,134.83,10.23,8.72,21.83,18.61,33.88,29.15a8.75,8.75,0,0,0,11.49,0c12.06-10.54,23.65-20.43,33.89-29.15,60.24-51.34,100-85.25,100-134.83C376.75,34.6,344.85,0,302.55,0Z"/><path class="cls-2" d="M292.35,100.87H261.49a3.16,3.16,0,0,1-3.16-3.16V66.84a3.17,3.17,0,0,0-3.17-3.16H219a3.16,3.16,0,0,0-3.16,3.16V97.71a3.17,3.17,0,0,1-3.16,3.16H181.81a3.16,3.16,0,0,0-3.17,3.16V140.2a3.16,3.16,0,0,0,3.17,3.16h30.86a3.17,3.17,0,0,1,3.16,3.16v30.87a3.16,3.16,0,0,0,3.16,3.16h36.17a3.17,3.17,0,0,0,3.17-3.16V146.52a3.16,3.16,0,0,1,3.16-3.16h30.86a3.16,3.16,0,0,0,3.16-3.16V104A3.16,3.16,0,0,0,292.35,100.87Z"/><text class="cls-3" transform="translate(0 346.68)">Vision <tspan class="cls-4" x="284.34" y="0">Cu</tspan><tspan class="cls-5" x="394.48" y="0">r</tspan><tspan class="cls-4" x="428.98" y="0">e</tspan></text></g></g></svg>