<svg xmlns="http://www.w3.org/2000/svg" viewBox="0 0 68.62 61.16"><defs><style>.cls-1{fill:none;stroke:#89d8d3;stroke-miterlimit:10;stroke-width:5px;}</style></defs><g id="Layer_2" data-name="Layer 2"><g id="Layer_1-2" data-name="Layer 1"><path class="cls-1" d="M49.22,2.5a15.06,15.06,0,0,0-9.41,3.25,21.47,21.47,0,0,0-5.5,6.62,21.47,21.47,0,0,0-5.5-6.62A15.06,15.06,0,0,0,19.4,2.5C9.76,2.5,2.5,10.38,2.5,20.83c0,11.29,9.06,19,22.78,30.71,2.33,2,5,4.23,7.72,6.63a2,2,0,0,0,2.62,0c2.74-2.4,5.38-4.65,7.72-6.64,13.71-11.69,22.78-19.41,22.78-30.7C66.12,10.38,58.85,2.5,49.22,2.5Z"/></g></g></svg>