<svg xmlns="http://www.w3.org/2000/svg" viewBox="0 0 59.56 59.56"><defs><style>.cls-1{fill:none;stroke:#89d8d3;stroke-miterlimit:10;stroke-width:5px;}</style></defs><g id="Layer_2" data-name="Layer 2"><g id="Layer_1-2" data-name="Layer 1"><path class="cls-1" d="M54.89,24.54H52.12a22.67,22.67,0,0,0-2.84-6.86l2-2a2.14,2.14,0,0,0,0-3.05L46.89,8.31a2.17,2.17,0,0,0-3.06,0l-2,2A23,23,0,0,0,35,7.43V4.66A2.17,2.17,0,0,0,32.85,2.5H26.7a2.16,2.16,0,0,0-2.16,2.16V7.43a23.19,23.19,0,0,0-6.86,2.84l-2-2a2.16,2.16,0,0,0-3.05,0L8.31,12.67a2.16,2.16,0,0,0,0,3.05l2,2a23.19,23.19,0,0,0-2.84,6.86H4.66A2.16,2.16,0,0,0,2.5,26.7v6.16A2.16,2.16,0,0,0,4.66,35H7.43a23,23,0,0,0,2.84,6.85l-2,2a2.17,2.17,0,0,0,0,3.06l4.36,4.35a2.14,2.14,0,0,0,3.05,0l2-2a22.67,22.67,0,0,0,6.86,2.84v2.77a2.17,2.17,0,0,0,2.16,2.17h6.15A2.17,2.17,0,0,0,35,54.89V52.12a22.51,22.51,0,0,0,6.85-2.84l2,2a2.15,2.15,0,0,0,3.06,0l4.35-4.35a2.15,2.15,0,0,0,0-3.06l-2-2A22.51,22.51,0,0,0,52.12,35h2.77a2.17,2.17,0,0,0,2.17-2.16V26.7A2.17,2.17,0,0,0,54.89,24.54ZM29.78,40.76a11,11,0,1,1,11-11A11,11,0,0,1,29.78,40.76Z"/></g></g></svg>